<svg width="88" height="88" viewBox="0 0 88 88" fill="none" xmlns="http://www.w3.org/2000/svg">
<rect width="88" height="88" rx="18" fill="#EAF9CC"/>
<path d="M32.2287 32.5464C32.5437 32.2337 32.9192 32.0774 33.3553 32.0774L55.6334 31.6805C55.8514 31.6564 56.1755 31.6474 56.6055 31.6534C57.0356 31.6594 57.7685 31.7196 58.8043 31.8338C59.84 31.9481 60.8425 32.1255 61.8116 32.366C62.7808 32.6066 63.8377 33.0125 64.9825 33.5838C66.1273 34.1551 67.1055 34.8436 67.9172 35.6494C70.5823 38.2954 71.8967 41.1277 71.8604 44.1465C71.824 47.1653 70.4491 50.0217 67.7355 52.7158C66.9844 53.4615 66.088 54.0929 65.0461 54.61C64.0043 55.1272 62.9261 55.5 61.8116 55.7285C60.6971 55.9571 59.7038 56.1194 58.8315 56.2156C57.9593 56.3119 57.0871 56.36 56.2149 56.36C56.2149 57.2259 56.1664 58.0919 56.0695 58.9578C55.9726 59.8238 55.809 60.81 55.5789 61.9165C55.3487 63.0229 54.9731 64.0934 54.4522 65.1277C53.9313 66.162 53.2953 67.052 52.5442 67.7977C49.8307 70.4917 46.9535 71.8568 43.9129 71.8929C40.8722 71.929 38.0193 70.624 35.3542 67.9781C32.6769 65.3201 31.3383 61.2369 31.3383 55.7286L31.7562 33.665C31.7562 33.232 31.9137 32.8591 32.2287 32.5464Z" fill="url(#paint0_linear_33_3366)"/>
<g filter="url(#filter0_d_33_3366)">
<path d="M55.7718 55.4536C55.4568 55.7663 55.0813 55.9226 54.6452 55.9226L32.3671 56.3195C32.1491 56.3436 31.825 56.3526 31.3949 56.3466C30.9649 56.3406 30.232 56.2804 29.1962 56.1662C28.1604 56.0519 27.158 55.8745 26.1889 55.634C25.2197 55.3934 24.1628 54.9875 23.018 54.4162C21.8732 53.845 20.8949 53.1564 20.0833 52.3506C17.4182 49.7047 16.1038 46.8723 16.1401 43.8535C16.1765 40.8347 17.5514 37.9783 20.265 35.2842C21.0161 34.5386 21.9125 33.9071 22.9544 33.39C23.9962 32.8728 25.0743 32.5 26.1889 32.2715C27.3034 32.043 28.2967 31.8806 29.169 31.7844C30.0412 31.6882 30.9134 31.64 31.7856 31.64C31.7856 30.7741 31.8341 29.9082 31.931 29.0422C32.0279 28.1763 32.1915 27.19 32.4216 26.0836C32.6518 24.9771 33.0273 23.9067 33.5483 22.8723C34.0692 21.838 34.7052 20.948 35.4562 20.2023C38.1698 17.5083 41.047 16.1432 44.0876 16.1071C47.1283 16.0711 49.9812 17.376 52.6463 20.0219C55.3236 22.6799 56.6622 26.7631 56.6622 32.2715L56.2443 54.3351C56.2443 54.768 56.0868 55.1409 55.7718 55.4536Z" fill="url(#paint1_linear_33_3366)"/>
</g>
<defs>
<filter id="filter0_d_33_3366" x="14.9392" y="14.9064" width="47.7229" height="47.442" filterUnits="userSpaceOnUse" color-interpolation-filters="sRGB">
<feFlood flood-opacity="0" result="BackgroundImageFix"/>
<feColorMatrix in="SourceAlpha" type="matrix" values="0 0 0 0 0 0 0 0 0 0 0 0 0 0 0 0 0 0 127 0" result="hardAlpha"/>
<feOffset dx="2.4" dy="2.4"/>
<feGaussianBlur stdDeviation="1.8"/>
<feComposite in2="hardAlpha" operator="out"/>
<feColorMatrix type="matrix" values="0 0 0 0 0 0 0 0 0 0 0 0 0 0 0 0 0 0 0.45 0"/>
<feBlend mode="normal" in2="BackgroundImageFix" result="effect1_dropShadow_33_3366"/>
<feBlend mode="normal" in="SourceGraphic" in2="effect1_dropShadow_33_3366" result="shape"/>
</filter>
<linearGradient id="paint0_linear_33_3366" x1="37.2509" y1="37.7336" x2="66.6689" y2="62.6508" gradientUnits="userSpaceOnUse">
<stop stop-color="#91D93D"/>
<stop offset="1" stop-color="#166524"/>
</linearGradient>
<linearGradient id="paint1_linear_33_3366" x1="31.9819" y1="31.8349" x2="55.7987" y2="55.8244" gradientUnits="userSpaceOnUse">
<stop stop-color="#C4F156"/>
<stop offset="1" stop-color="#50B53B"/>
</linearGradient>
</defs>
</svg>
