<svg width="20" height="20" viewBox="0 0 20 20" fill="none" xmlns="http://www.w3.org/2000/svg">
<mask id="mask0_607_865" style="mask-type:alpha" maskUnits="userSpaceOnUse" x="0" y="0" width="20" height="20">
<rect width="20" height="20" fill="#6A6A6A"/>
</mask>
<g mask="url(#mask0_607_865)">
<path d="M4.16667 18.3334C3.70833 18.3334 3.31597 18.1702 2.98958 17.8438C2.66319 17.5174 2.5 17.1251 2.5 16.6667V5.00008C2.5 4.54175 2.66319 4.14939 2.98958 3.823C3.31597 3.49661 3.70833 3.33341 4.16667 3.33341H5V1.66675H6.66667V3.33341H13.3333V1.66675H15V3.33341H15.8333C16.2917 3.33341 16.684 3.49661 17.0104 3.823C17.3368 4.14939 17.5 4.54175 17.5 5.00008V8.89591C17.5 9.13203 17.4201 9.32994 17.2604 9.48966C17.1007 9.64939 16.9028 9.72925 16.6667 9.72925C16.4306 9.72925 16.2326 9.64939 16.0729 9.48966C15.9132 9.32994 15.8333 9.13203 15.8333 8.89591V8.33341H4.16667V16.6667H9C9.23611 16.6667 9.43403 16.7466 9.59375 16.9063C9.75347 17.0661 9.83333 17.264 9.83333 17.5001C9.83333 17.7362 9.75347 17.9341 9.59375 18.0938C9.43403 18.2536 9.23611 18.3334 9 18.3334H4.16667ZM12.0521 17.948C11.2396 17.1355 10.8333 16.1529 10.8333 15.0001C10.8333 13.8473 11.2396 12.8647 12.0521 12.0522C12.8646 11.2397 13.8472 10.8334 15 10.8334C16.1528 10.8334 17.1354 11.2397 17.9479 12.0522C18.7604 12.8647 19.1667 13.8473 19.1667 15.0001C19.1667 16.1529 18.7604 17.1355 17.9479 17.948C17.1354 18.7605 16.1528 19.1667 15 19.1667C13.8472 19.1667 12.8646 18.7605 12.0521 17.948ZM16.3958 16.9792L16.9792 16.3959L15.4167 14.8334V12.5001H14.5833V15.1667L16.3958 16.9792Z" fill="#6A6A6A"/>
</g>
</svg>
