<svg width="180" height="180" viewBox="0 0 180 180" fill="none" xmlns="http://www.w3.org/2000/svg">
<mask id="mask0_1201_20785" style="mask-type:alpha" maskUnits="userSpaceOnUse" x="0" y="0" width="180" height="180">
<rect width="180" height="180" fill="#D9D9D9"/>
</mask>
<g mask="url(#mask0_1201_20785)">
<path d="M63.0019 127.499L90.0019 100.499L117.002 127.499L127.502 116.999L100.502 89.999L127.502 62.999L117.002 52.499L90.0019 79.499L63.0019 52.499L52.5019 62.999L79.5019 89.999L52.5019 116.999L63.0019 127.499ZM90.0019 164.999C79.6269 164.999 69.8769 163.03 60.7519 159.093C51.6269 155.155 43.6894 149.812 36.9394 143.062C30.1895 136.312 24.8457 128.374 20.9082 119.249C16.9707 110.124 15.002 100.374 15.002 89.999C15.002 79.624 16.9707 69.874 20.9082 60.749C24.8457 51.624 30.1895 43.6865 36.9394 36.9365C43.6894 30.1865 51.6269 24.8428 60.7519 20.9053C69.8769 16.9678 79.6269 14.999 90.0019 14.999C100.377 14.999 110.127 16.9678 119.252 20.9053C128.377 24.8428 136.314 30.1865 143.064 36.9365C149.814 43.6865 155.158 51.624 159.096 60.749C163.033 69.874 165.002 79.624 165.002 89.999C165.002 100.374 163.033 110.124 159.096 119.249C155.158 128.374 149.814 136.312 143.064 143.062C136.314 149.812 128.377 155.155 119.252 159.093C110.127 163.03 100.377 164.999 90.0019 164.999Z" fill="#C03A2E"/>
</g>
</svg>
