<svg width="12" height="12" viewBox="0 0 12 12" fill="none" xmlns="http://www.w3.org/2000/svg">
<path d="M3.42708 10.7625C2.74653 10.4708 2.15104 10.0698 1.64062 9.55937C1.13021 9.04896 0.729167 8.45347 0.4375 7.77292C0.145833 7.09236 0 6.36562 0 5.59271C0 4.81979 0.145833 4.09549 0.4375 3.41979C0.729167 2.7441 1.13021 2.15104 1.64062 1.64063C2.15104 1.13021 2.74653 0.729167 3.42708 0.4375C4.10764 0.145833 4.83437 0 5.60729 0C6.38021 0 7.10451 0.145833 7.78021 0.4375C8.4559 0.729167 9.04896 1.13021 9.55937 1.64063C10.0698 2.15104 10.4708 2.7441 10.7625 3.41979C11.0542 4.09549 11.2 4.81979 11.2 5.59271C11.2 6.36562 11.0542 7.09236 10.7625 7.77292C10.4708 8.45347 10.0698 9.04896 9.55937 9.55937C9.04896 10.0698 8.4559 10.4708 7.78021 10.7625C7.10451 11.0542 6.38021 11.2 5.60729 11.2C4.83437 11.2 4.10764 11.0542 3.42708 10.7625ZM8.82292 8.82292C9.70764 7.93819 10.15 6.86389 10.15 5.6H5.6L5.6 1.05C4.33611 1.05 3.26181 1.49236 2.37708 2.37708C1.49236 3.26181 1.05 4.33611 1.05 5.6C1.05 6.86389 1.49236 7.93819 2.37708 8.82292C3.26181 9.70764 4.33611 10.15 5.6 10.15C6.86389 10.15 7.93819 9.70764 8.82292 8.82292Z" fill="white"/>
</svg>
