<svg width="18" height="15" viewBox="0 0 18 15" fill="none" xmlns="http://www.w3.org/2000/svg">
<path d="M14.7292 12.8125L15.3125 12.2292L13.75 10.6667V8.33333H12.9167V11L14.7292 12.8125ZM13.3542 15C12.1875 15 11.1979 14.5972 10.3854 13.7917C9.57292 12.9861 9.16667 12 9.16667 10.8333C9.16667 9.66667 9.57292 8.68056 10.3854 7.875C11.1979 7.06944 12.1875 6.66667 13.3542 6.66667C14.5069 6.66667 15.4861 7.07292 16.2917 7.88542C17.0972 8.69792 17.5 9.68056 17.5 10.8333C17.5 11.9861 17.0972 12.9688 16.2917 13.7812C15.4861 14.5938 14.5069 15 13.3542 15ZM1.66667 13.3333C1.20833 13.3333 0.815972 13.1701 0.489583 12.8438C0.163194 12.5174 0 12.125 0 11.6667V1.66667C0 1.20833 0.163194 0.815972 0.489583 0.489583C0.815972 0.163194 1.20833 0 1.66667 0H15C15.4583 0 15.8507 0.163194 16.1771 0.489583C16.5035 0.815972 16.6667 1.20833 16.6667 1.66667V6.10417C16.4167 5.92361 16.1528 5.76389 15.875 5.625C15.5972 5.48611 15.3056 5.36806 15 5.27083V3.33333H1.66667V6.66667H9.16667C8.625 7.19444 8.19792 7.81597 7.88542 8.53125C7.57292 9.24653 7.41667 10.0139 7.41667 10.8333C7.41667 11.2778 7.46528 11.7118 7.5625 12.1354C7.65972 12.559 7.79861 12.9583 7.97917 13.3333H1.66667Z" fill="#6A6A6A"/>
</svg>
