<svg width="20" height="20" viewBox="0 0 20 20" fill="none" xmlns="http://www.w3.org/2000/svg">
<mask id="mask0_441_1326" style="mask-type:alpha" maskUnits="userSpaceOnUse" x="0" y="0" width="20" height="20">
<rect width="20" height="20" fill="#D9D9D9"/>
</mask>
<g mask="url(#mask0_441_1326)">
<path d="M10.0003 0.833252L17.542 5.33325C17.792 5.48603 17.9864 5.69436 18.1253 5.95825C18.2642 6.22214 18.3337 6.49992 18.3337 6.79159V15.8333C18.3337 16.2916 18.1705 16.6839 17.8441 17.0103C17.5177 17.3367 17.1253 17.4999 16.667 17.4999H3.33366C2.87533 17.4999 2.48296 17.3367 2.15658 17.0103C1.83019 16.6839 1.66699 16.2916 1.66699 15.8333V6.79159C1.66699 6.49992 1.73644 6.22214 1.87533 5.95825C2.01421 5.69436 2.20866 5.48603 2.45866 5.33325L10.0003 0.833252ZM10.0003 10.5416L16.5003 6.66658L10.0003 2.79159L3.50033 6.66658L10.0003 10.5416Z" fill="#0F7635"/>
</g>
</svg>
