<svg width="60" height="60" viewBox="0 0 60 60" fill="none" xmlns="http://www.w3.org/2000/svg">
<mask id="mask0_1201_20830" style="mask-type:alpha" maskUnits="userSpaceOnUse" x="0" y="0" width="60" height="60">
<rect width="60" height="60" fill="#D9D9D9"/>
</mask>
<g mask="url(#mask0_1201_20830)">
<path d="M9.6875 45.8125C8.22917 44.3542 7.5 42.5833 7.5 40.5H3V15C3 13.75 3.4375 12.6875 4.3125 11.8125C5.1875 10.9375 6.25 10.5 7.5 10.5H42V19.5H49.5L57 30V40.5H52.5C52.5 42.5833 51.7708 44.3542 50.3125 45.8125C48.8542 47.2708 47.0833 48 45 48C42.9167 48 41.1458 47.2708 39.6875 45.8125C38.2292 44.3542 37.5 42.5833 37.5 40.5H22.5C22.5 42.5833 21.7708 44.3542 20.3125 45.8125C18.8542 47.2708 17.0833 48 15 48C12.9167 48 11.1458 47.2708 9.6875 45.8125ZM17.125 42.625C17.7083 42.0417 18 41.3333 18 40.5C18 39.6667 17.7083 38.9583 17.125 38.375C16.5417 37.7917 15.8333 37.5 15 37.5C14.1667 37.5 13.4583 37.7917 12.875 38.375C12.2917 38.9583 12 39.6667 12 40.5C12 41.3333 12.2917 42.0417 12.875 42.625C13.4583 43.2083 14.1667 43.5 15 43.5C15.8333 43.5 16.5417 43.2083 17.125 42.625ZM47.125 42.625C47.7083 42.0417 48 41.3333 48 40.5C48 39.6667 47.7083 38.9583 47.125 38.375C46.5417 37.7917 45.8333 37.5 45 37.5C44.1667 37.5 43.4583 37.7917 42.875 38.375C42.2917 38.9583 42 39.6667 42 40.5C42 41.3333 42.2917 42.0417 42.875 42.625C43.4583 43.2083 44.1667 43.5 45 43.5C45.8333 43.5 46.5417 43.2083 47.125 42.625ZM42 31.5H52.5L47.1875 24H42V31.5Z" fill="#C02E2E"/>
</g>
</svg>
