<svg width="20" height="20" viewBox="0 0 20 20" fill="none" xmlns="http://www.w3.org/2000/svg">
<mask id="mask0_780_3173" style="mask-type:alpha" maskUnits="userSpaceOnUse" x="0" y="0" width="20" height="20">
<rect width="20" height="20" fill="#6A6A6A"/>
</mask>
<g mask="url(#mask0_780_3173)">
<path d="M9.16667 18.1042V10.4792L2.5 6.62508V13.3126C2.5 13.6181 2.57292 13.8959 2.71875 14.1459C2.86458 14.3959 3.06944 14.5973 3.33333 14.7501L9.16667 18.1042ZM10.8333 18.1042L16.6667 14.7501C16.9306 14.5973 17.1354 14.3959 17.2813 14.1459C17.4271 13.8959 17.5 13.6181 17.5 13.3126V6.62508L10.8333 10.4792V18.1042ZM14.1458 6.64592L16.6042 5.20842L10.8333 1.89591C10.5694 1.74314 10.2917 1.66675 10 1.66675C9.70833 1.66675 9.43056 1.74314 9.16667 1.89591L7.52083 2.83341L14.1458 6.64592ZM10 9.04175L12.4792 7.62508L5.875 3.79175L3.375 5.22925L10 9.04175Z" fill="#6A6A6A"/>
</g>
</svg>
