<svg width="20" height="20" viewBox="0 0 20 20" fill="none" xmlns="http://www.w3.org/2000/svg">
<mask id="mask0_585_1238" style="mask-type:alpha" maskUnits="userSpaceOnUse" x="0" y="0" width="20" height="20">
<rect width="20" height="20" fill="#D9D9D9"/>
</mask>
<g mask="url(#mask0_585_1238)">
<path d="M7.64648 9.021C6.99371 8.36822 6.66732 7.5835 6.66732 6.66683C6.66732 5.75016 6.99371 4.96544 7.64648 4.31266C8.29926 3.65989 9.08398 3.3335 10.0007 3.3335C10.9173 3.3335 11.702 3.65989 12.3548 4.31266C13.0076 4.96544 13.334 5.75016 13.334 6.66683C13.334 7.5835 13.0076 8.36822 12.3548 9.021C11.702 9.67377 10.9173 10.0002 10.0007 10.0002C9.08398 10.0002 8.29926 9.67377 7.64648 9.021ZM3.33398 16.6668V14.3335C3.33398 13.8613 3.45551 13.4272 3.69857 13.0314C3.94162 12.6356 4.26454 12.3335 4.66732 12.1252C5.52843 11.6946 6.40343 11.3717 7.29232 11.1564C8.18121 10.9411 9.08398 10.8335 10.0007 10.8335C10.9173 10.8335 11.8201 10.9411 12.709 11.1564C13.5979 11.3717 14.4729 11.6946 15.334 12.1252C15.7368 12.3335 16.0597 12.6356 16.3027 13.0314C16.5458 13.4272 16.6673 13.8613 16.6673 14.3335V16.6668H3.33398Z" fill="#6A6A6A"/>
</g>
</svg>
