<svg width="14" height="14" viewBox="0 0 14 14" fill="none" xmlns="http://www.w3.org/2000/svg">
<mask id="mask0_746_582" style="mask-type:alpha" maskUnits="userSpaceOnUse" x="0" y="0" width="14" height="14">
<rect width="14" height="14" fill="#D9D9D9"/>
</mask>
<g mask="url(#mask0_746_582)">
<path d="M9.53711 8.79385L11.01 7.33551C11.292 7.05357 11.5107 6.72301 11.6663 6.34385C11.8218 5.96468 11.8996 5.57093 11.8996 5.1626C11.8996 4.30967 11.6024 3.58599 11.0081 2.99158C10.4137 2.39726 9.69004 2.1001 8.83711 2.1001C8.42878 2.1001 8.03503 2.17788 7.65586 2.33343C7.27669 2.48899 6.94614 2.70774 6.66419 2.98968L5.20586 4.4626L9.53711 8.79385ZM5.16211 11.9001C5.57044 11.9001 5.96419 11.8223 6.34336 11.6668C6.72253 11.5112 7.05308 11.2925 7.33503 11.0105L8.79336 9.5376L4.46211 5.20635L2.98919 6.66468C2.70725 6.94663 2.4885 7.27718 2.33294 7.65635C2.17739 8.03551 2.09961 8.42926 2.09961 8.8376C2.09961 9.69053 2.39677 10.4142 2.99109 11.0086C3.58551 11.6029 4.30918 11.9001 5.16211 11.9001Z" fill="white"/>
</g>
</svg>
