<svg width="20" height="20" viewBox="0 0 20 20" fill="none" xmlns="http://www.w3.org/2000/svg">
<path d="M10 20C12.7917 20 15.1562 19.0312 17.0938 17.0938C19.0312 15.1562 20 12.7917 20 10C20 7.20833 19.0312 4.84375 17.0938 2.90625C15.1562 0.96875 12.7917 0 10 0C8.5625 0 7.1875 0.296875 5.875 0.890625C4.5625 1.48438 3.4375 2.33333 2.5 3.4375V0H0V8.75H8.75V6.25H3.5C4.16667 5.08333 5.07812 4.16667 6.23438 3.5C7.39062 2.83333 8.64583 2.5 10 2.5C12.0833 2.5 13.8542 3.22917 15.3125 4.6875C16.7708 6.14583 17.5 7.91667 17.5 10C17.5 12.0833 16.7708 13.8542 15.3125 15.3125C13.8542 16.7708 12.0833 17.5 10 17.5C8.39583 17.5 6.94792 17.0417 5.65625 16.125C4.36458 15.2083 3.45833 14 2.9375 12.5H0.3125C0.895834 14.7083 2.08333 16.5104 3.875 17.9062C5.66667 19.3021 7.70833 20 10 20Z" fill="#222222"/>
</svg>
