<svg width="91" height="122" viewBox="0 0 91 122" fill="none" xmlns="http://www.w3.org/2000/svg">
<path d="M16.8518 62.4077H11.3367L8.5791 59.9052V53.6487H9.80469V58.9667L11.6431 60.8436H16.8518V62.4077Z" fill="white"/>
<path d="M25.1248 51.6152L24.8184 51.9281V57.246H27.2695V51.9281L26.9631 51.6152H25.1248Z" fill="white"/>
<path d="M43.6609 55.2124H38.1458L37.2266 54.5127V48.0175L38.1458 47.3919L39.3713 48.3304V52.7098L39.6777 53.0227H43.9673L44.8865 53.9611L43.6609 55.2124Z" fill="white"/>
<path d="M52.9543 55.2129H58.4695L59.3887 54.5132V48.018L58.4695 47.3924L57.2439 48.3308V52.7103L56.9375 53.0231H52.6479L51.7287 53.9616L52.9543 55.2129Z" fill="white"/>
<path d="M24.8184 47.5483V49.4253L25.1248 49.7381H26.9631L27.2695 49.4253V47.5483H24.8184Z" fill="white"/>
<path d="M13.4814 47.5483V57.2458H22.9798L23.2862 56.933V47.5483H13.4814Z" fill="white"/>
<path d="M69.5521 46.9229V75.7023L68.3265 79.4562L61.5857 82.5844L59.7473 80.7075V59.7485L58.8282 57.2459L56.9898 55.369L52.0874 54.4305L49.9426 55.6818L48.1043 58.4972V79.1434L46.5723 93.5331L47.1851 97.5998L52.7002 106.359L54.2322 111.364H71.6968L83.3399 84.4613V81.3331L75.3736 55.6818L69.5521 46.9229Z" fill="white"/>
<path d="M13.4814 43.1689V45.6715H15.6262V43.4818L15.3198 43.1689H13.4814Z" fill="white"/>
<path d="M37.3799 43.1691V44.1076L37.9927 44.7332H58.8277L59.4405 44.1076V43.4819L58.8277 42.5435H37.9927L37.3799 43.1691Z" fill="white"/>
<path d="M26.9632 35.6611H25.1248L24.8184 35.974V42.856L24.512 43.1688H17.7712L17.4648 43.4816V45.3586L17.7712 45.6714H26.9632L27.2696 45.3586V35.974L26.9632 35.6611Z" fill="white"/>
<path d="M52.9543 32.2207H58.4695L59.3887 32.9204V39.4156L58.4695 40.0412L57.2439 39.1028V34.7233L56.9375 34.4104H52.6479L51.7287 33.472L52.9543 32.2207Z" fill="white"/>
<path d="M43.8142 32.2202H38.2991L37.3799 32.9199V39.4151L38.2991 40.0407L39.5247 39.1023V34.7228L39.8311 34.41H44.1206L45.0398 33.4715L43.8142 32.2202Z" fill="white"/>
<path d="M24.8184 31.5947V33.7845H27.2695V31.5947H24.8184Z" fill="white"/>
<path d="M13.4814 31.5947V41.605H22.9798L23.2862 41.2922V31.9075L22.9798 31.5947H13.4814Z" fill="white"/>
<path d="M16.5452 26.2769H11.03L8.27246 28.7794V35.0358H9.49805V29.7179L11.3364 27.841H16.5452V26.2769Z" fill="white"/>
<path d="M32.7842 9.07161L29.1074 12.8255V77.2665L32.7842 81.0203H46.2657V77.5793V74.4511V71.0101H32.7842L32.1714 70.0716L32.4778 19.3947L64.3431 19.0819L64.6571 70.7004H61.2791V80.3947L68.0097 77.5793L67.7135 12.8255L63.1175 8.75879L32.7842 9.07161Z" fill="white"/>
</svg>
