<svg width="19" height="17" viewBox="0 0 19 17" fill="none" xmlns="http://www.w3.org/2000/svg">
<path d="M10 5.83333H14.1667L10 1.66667V5.83333ZM4.16667 16.6667C3.70833 16.6667 3.31597 16.5035 2.98958 16.1771C2.66319 15.8507 2.5 15.4583 2.5 15V12.5H15.8333V15C15.8333 15.4583 15.6701 15.8507 15.3438 16.1771C15.0174 16.5035 14.625 16.6667 14.1667 16.6667H4.16667ZM0 10.8333V9.16667H18.3333V10.8333H0ZM2.5 7.5V1.66667C2.5 1.20833 2.66319 0.815972 2.98958 0.489583C3.31597 0.163194 3.70833 0 4.16667 0H10.8333L15.8333 5V7.5H2.5Z" fill="white"/>
</svg>
