<svg width="67" height="67" viewBox="0 0 67 67" fill="none" xmlns="http://www.w3.org/2000/svg">
<path d="M28.6667 48.6667L52.1667 25.1667L47.5 20.5L28.6667 39.3333L19.1667 29.8333L14.5 34.5L28.6667 48.6667ZM33.3333 66.6667C28.7222 66.6667 24.3889 65.7917 20.3333 64.0417C16.2778 62.2917 12.75 59.9167 9.75 56.9167C6.75 53.9167 4.375 50.3889 2.625 46.3333C0.875 42.2778 0 37.9444 0 33.3333C0 28.7222 0.875 24.3889 2.625 20.3333C4.375 16.2778 6.75 12.75 9.75 9.75C12.75 6.75 16.2778 4.375 20.3333 2.625C24.3889 0.875 28.7222 0 33.3333 0C37.9444 0 42.2778 0.875 46.3333 2.625C50.3889 4.375 53.9167 6.75 56.9167 9.75C59.9167 12.75 62.2917 16.2778 64.0417 20.3333C65.7917 24.3889 66.6667 28.7222 66.6667 33.3333C66.6667 37.9444 65.7917 42.2778 64.0417 46.3333C62.2917 50.3889 59.9167 53.9167 56.9167 56.9167C53.9167 59.9167 50.3889 62.2917 46.3333 64.0417C42.2778 65.7917 37.9444 66.6667 33.3333 66.6667Z" fill="#2EC07A"/>
</svg>
